<?xml version="1.0" standalone="no"?>
<!DOCTYPE svg PUBLIC "-//W3C//DTD SVG 20010904//EN"
 "http://www.w3.org/TR/2001/REC-SVG-20010904/DTD/svg10.dtd">
<svg version="1.0" xmlns="http://www.w3.org/2000/svg"
 width="612.000000pt" height="408.000000pt" viewBox="0 0 612.000000 408.000000"
 preserveAspectRatio="xMidYMid meet">

<g transform="translate(0.000000,408.000000) scale(0.100000,-0.100000)"
fill="#000000" stroke="none">
<path d="M2445 2771 c-36 -15 -72 -60 -79 -99 -10 -60 -6 -194 7 -232 18 -53
67 -80 144 -80 75 0 122 17 146 53 14 21 17 51 17 155 0 145 -10 170 -76 198
-36 15 -127 18 -159 5z m129 -87 c20 -20 23 -213 4 -232 -16 -16 -90 -16 -106
0 -8 8 -12 49 -12 120 0 91 3 108 18 117 26 16 79 13 96 -5z"/>
<path d="M2000 2565 l0 -205 86 0 c107 0 169 15 194 48 18 22 20 40 20 153 0
70 -4 139 -10 153 -16 43 -57 56 -180 56 l-110 0 0 -205z m200 106 c5 -11 10
-60 10 -109 0 -103 -7 -115 -73 -116 l-42 -1 -3 123 -3 122 50 0 c39 0 53 -4
61 -19z"/>
<path d="M2722 2733 l3 -38 52 -3 53 -3 2 -162 3 -162 45 0 45 0 3 163 2 162
55 0 55 0 0 40 0 40 -161 0 -160 0 3 -37z"/>
<path d="M3605 2576 c-25 -38 -7 -69 49 -84 38 -10 46 -16 46 -36 0 -36 -23
-50 -71 -42 -27 4 -38 3 -34 -4 10 -15 91 -12 104 4 7 8 11 29 9 47 -3 30 -7
34 -48 44 -38 9 -45 15 -48 37 -4 34 27 52 70 43 21 -5 28 -4 24 4 -4 6 -25
11 -46 11 -31 0 -43 -5 -55 -24z"/>
<path d="M4051 2584 c0 -11 3 -14 6 -6 3 7 2 16 -1 19 -3 4 -6 -2 -5 -13z"/>
<path d="M4274 2500 c0 -58 1 -81 3 -52 2 28 2 76 0 105 -2 28 -3 5 -3 -53z"/>
<path d="M3772 2528 c-16 -16 -16 -100 0 -116 7 -7 26 -12 43 -12 42 0 55 16
55 70 0 54 -13 70 -55 70 -17 0 -36 -5 -43 -12z m76 -10 c29 -29 5 -108 -33
-108 -24 0 -45 30 -45 64 0 37 15 56 45 56 12 0 26 -5 33 -12z"/>
<path d="M3922 2528 c-15 -15 -16 -82 -2 -109 8 -14 21 -19 48 -18 38 1 36 3
-11 13 -27 6 -28 9 -25 59 3 51 4 52 38 58 l35 6 -35 2 c-20 0 -41 -4 -48 -11z"/>
<path d="M4053 2470 c0 -41 2 -58 4 -37 2 20 2 54 0 75 -2 20 -4 3 -4 -38z"/>
<path d="M4155 2531 c31 -5 41 -11 43 -28 3 -19 -1 -23 -25 -23 -41 0 -66 -21
-61 -51 3 -22 8 -24 51 -24 l48 -1 -3 66 -3 65 -45 1 -45 2 40 -7z m45 -86 c0
-18 -37 -38 -56 -31 -8 3 -14 15 -14 26 0 16 6 20 35 20 24 0 35 -5 35 -15z"/>
<path d="M3090 2415 l0 -55 40 0 40 0 0 55 0 55 -40 0 -40 0 0 -55z"/>
<path d="M2138 2296 c-58 -21 -86 -43 -108 -86 -18 -35 -20 -58 -20 -222 0
-172 2 -186 23 -223 14 -24 40 -50 67 -65 41 -23 55 -25 155 -24 61 0 129 6
153 13 l42 12 0 144 0 145 -65 0 -65 0 0 -95 0 -95 -69 0 c-99 0 -101 4 -101
192 0 196 -2 193 155 185 l112 -5 7 55 c4 31 5 58 3 60 -3 2 -31 8 -63 13 -82
14 -182 12 -226 -4z"/>
<path d="M4270 2221 c0 -28 -3 -30 -42 -33 l-43 -3 0 -65 0 -65 53 -1 52 -2 0
99 c0 59 -4 99 -10 99 -5 0 -10 -13 -10 -29z m-2 -98 c3 -49 1 -53 -22 -59
-42 -10 -56 1 -56 45 0 60 8 73 44 69 30 -3 31 -5 34 -55z"/>
<path d="M4340 2235 c0 -8 5 -15 10 -15 6 0 10 7 10 15 0 8 -4 15 -10 15 -5 0
-10 -7 -10 -15z"/>
<path d="M3600 2145 l0 -96 58 3 57 3 3 39 c2 21 -1 43 -7 49 -6 6 -6 15 1 27
6 9 8 29 4 43 -6 25 -10 27 -61 27 l-55 0 0 -95z m100 50 c0 -35 0 -35 -45
-35 -45 0 -45 0 -45 35 0 35 0 35 45 35 45 0 45 0 45 -35z m5 -95 c0 -35 0
-35 -45 -35 -45 0 -45 0 -48 38 l-3 38 48 -3 c48 -3 48 -3 48 -38z"/>
<path d="M3770 2120 c0 -40 4 -70 10 -70 6 0 10 24 10 54 0 46 3 56 20 61 11
3 20 11 20 16 0 6 -8 6 -20 -1 -14 -7 -20 -7 -20 0 0 5 -4 10 -10 10 -6 0 -10
-30 -10 -70z"/>
<path d="M3905 2181 c34 -5 40 -10 40 -31 0 -22 -5 -26 -40 -30 -37 -5 -40 -7
-40 -35 0 -29 2 -30 48 -31 l48 -1 -3 66 -3 66 -45 1 -45 2 40 -7z m45 -90 c0
-20 -18 -31 -51 -31 -14 0 -19 7 -19 25 0 22 4 25 35 25 28 0 35 -4 35 -19z"/>
<path d="M4022 2115 l2 -70 3 58 c4 52 7 59 30 68 44 16 53 6 53 -61 0 -33 4
-60 10 -60 12 0 13 109 2 128 -5 8 -26 11 -55 10 l-47 -3 2 -70z"/>
<path d="M4340 2120 c0 -40 4 -70 10 -70 6 0 10 30 10 70 0 40 -4 70 -10 70
-6 0 -10 -30 -10 -70z"/>
<path d="M4410 2118 c0 -39 4 -68 10 -68 6 0 10 26 10 59 0 58 1 60 31 66 17
4 33 4 37 0 4 -4 10 -34 13 -68 l6 -62 -1 70 -1 70 -52 1 -53 1 0 -69z"/>
<path d="M4580 2175 c-9 -11 -10 -29 -4 -68 9 -51 10 -52 49 -57 27 -3 41 -10
43 -22 4 -21 -35 -33 -74 -24 -17 5 -23 3 -19 -4 10 -16 82 -12 99 6 25 24 4
52 -41 56 -41 3 -59 28 -21 28 40 0 71 28 66 61 -3 16 0 31 6 33 6 2 -12 5
-40 5 -35 1 -56 -4 -64 -14z m79 -13 c14 -26 -5 -52 -39 -52 -33 0 -50 31 -30
55 17 21 57 19 69 -3z"/>
<path d="M2645 2121 c-76 -35 -104 -91 -105 -211 0 -97 14 -146 54 -186 40
-40 103 -58 183 -51 69 5 115 27 147 70 18 25 21 45 24 155 3 119 2 129 -20
162 -50 75 -188 105 -283 61z m155 -111 c17 -17 20 -33 20 -103 0 -102 -11
-122 -68 -122 -64 0 -72 14 -72 121 0 85 2 94 22 108 31 22 74 20 98 -4z"/>
<path d="M3621 1804 c-33 -92 -40 -127 -15 -81 13 23 21 27 60 27 38 0 46 -4
56 -25 21 -46 26 -25 7 28 -11 28 -27 71 -35 95 -9 23 -21 42 -28 42 -8 0 -27
-39 -45 -86z m72 4 l16 -48 -45 0 -44 0 20 53 c11 28 20 54 20 57 0 15 20 -22
33 -62z"/>
<path d="M3843 1781 c-10 -34 -21 -61 -24 -61 -3 0 -11 25 -18 55 -7 30 -16
55 -20 55 -5 0 -1 -29 7 -65 20 -81 39 -83 62 -8 8 28 18 54 21 57 3 4 13 -21
22 -54 22 -79 40 -78 61 5 19 74 19 78 7 71 -4 -3 -14 -33 -20 -67 -7 -33 -14
-59 -17 -57 -2 3 -12 31 -22 63 -9 32 -23 60 -29 62 -8 3 -19 -19 -30 -56z"/>
<path d="M4015 1831 c-3 -6 12 -11 32 -13 31 -2 39 -7 41 -25 3 -20 -1 -23
-30 -23 -38 0 -58 -15 -58 -42 0 -25 31 -38 74 -31 l36 6 0 53 c0 34 -5 58
-16 68 -17 17 -69 22 -79 7z m75 -91 c0 -12 -9 -24 -22 -29 -30 -11 -48 -3
-48 19 0 20 13 28 48 29 16 1 22 -5 22 -19z"/>
<path d="M4160 1773 c0 -42 4 -73 10 -73 6 0 10 22 10 49 0 39 4 52 23 65 l22
17 -24 -7 c-15 -4 -27 -1 -32 7 -5 9 -9 -14 -9 -58z"/>
<path d="M4280 1833 c-8 -3 -18 -11 -22 -17 -10 -14 -10 -88 0 -103 11 -18 58
-26 79 -14 16 10 15 11 -7 10 -51 -4 -60 0 -60 26 0 23 4 25 45 25 41 0 45 2
45 24 0 43 -37 65 -80 49z m58 -35 c3 -15 -4 -18 -32 -18 -34 0 -47 15 -29 34
13 13 58 1 61 -16z"/>
<path d="M4413 1770 c1 -63 1 -66 4 -20 4 59 13 70 56 70 26 0 27 -1 27 -60 0
-33 4 -60 10 -60 6 0 10 26 10 59 0 73 -15 89 -65 74 -25 -8 -35 -8 -39 1 -2
6 -4 -23 -3 -64z"/>
<path d="M4590 1833 c-8 -3 -18 -11 -22 -17 -10 -14 -10 -88 0 -103 11 -18 58
-26 79 -14 16 10 15 11 -7 10 -51 -4 -60 0 -60 26 0 23 4 25 45 25 41 0 45 2
45 24 0 43 -37 65 -80 49z m60 -33 c0 -16 -7 -20 -35 -20 -22 0 -35 5 -35 13
0 20 10 27 42 27 21 0 28 -5 28 -20z"/>
<path d="M4725 1824 c-9 -9 -14 -23 -11 -31 3 -8 6 -16 6 -18 0 -2 16 -9 35
-15 56 -19 42 -68 -16 -53 -15 4 -20 3 -15 -5 10 -17 52 -15 70 4 19 18 19 20
6 43 -5 10 -23 21 -40 24 -21 5 -30 12 -30 27 0 16 7 20 36 20 21 0 33 4 29
10 -10 16 -52 12 -70 -6z"/>
<path d="M4862 1828 c-26 -26 -9 -62 33 -70 23 -4 33 -37 14 -49 -8 -4 -25 -6
-39 -3 -25 4 -25 4 -2 -7 32 -17 72 2 72 35 0 19 -8 27 -35 36 -24 8 -35 18
-35 31 0 15 7 19 36 19 21 0 33 4 29 10 -9 14 -58 13 -73 -2z"/>
</g>
</svg>
